# xmcd CD database file
#
# Track frame offsets:
#	150
#	38670
#	62955
#	104685
#	156055
#	204960
#	228470
#	252885
#	295550
#
# Disc length: 4004 seconds
#
# Revision: 6
# Processed by: cddbd v1.5.2PL0 Copyright (c) Steve Scherf et al.
# Submitted via: CDex 1.51
#
DISCID=760fa209
DTITLE=Thelonious Monk and Johnny Griffin - Giants of Jazz - Disc 112, Malik [LIVE]
DYEAR=1958
DGENRE=Jazz
TTITLE0=Blue Monk
TTITLE1=Nutty
TTITLE2=Let's Cool One
TTITLE3=In Walked Bud
TTITLE4=Misterioso
TTITLE5=Light Blue
TTITLE6=Coming On The Hudson
TTITLE7=Rhythm-A-Ning
TTITLE8=Epistrophy
EXTD=YEAR: 1958
EXTT0=
EXTT1=
EXTT2=
EXTT3=
EXTT4=
EXTT5=
EXTT6=
EXTT7=
EXTT8=
PLAYORDER=
